# xmcd CD database file
#
# Track frame offsets:
#	150
#	18950
#	31725
#	52567
#	72125
#	88555
#	106212
#	128037
#	143200
#	159995
#	171455
#	188900
#
# Disc length: 2721 seconds
#
# Revision: 0
# Processed by: cddbd v1.5.1PL2 Copyright (c) Steve Scherf et al.
# Submitted via: CDex 1.51
#
DISCID=8e0a9f0c
DTITLE=佐藤健太・他 - 恐竜戦隊ジュウレンジャー[ヒット曲集]
DYEAR=1992
DGENRE=サウンドトラック (テレビ)
TTITLE0=佐藤健太/恐竜戦隊ジュウレンジャー
TTITLE1=吉田明彦/復活の一族（BGM）
TTITLE2=曽我町子/Dolla!〜魔女バンドーラのテーマ〜
TTITLE3=吉田明彦/苦難と危機をのりこえて（BGM）
TTITLE4=平石豊茂美/希望の剣
TTITLE5=Ju-project/大獣神のうた
TTITLE6=吉田明彦/ジュウレンジャー・戦いの日々（BGM）<恐竜戦隊ジュウレンジャー>
TTITLE7=平石豊茂美/ティラノレンジャー・・「赤き勇姿」
TTITLE8=斎藤小百合/夢みる乙女の力こぶ
TTITLE9=吉田明彦/勝利を呼ぶ大反撃（BGM）
TTITLE10=佐藤健太/しっぽPiki Piki
TTITLE11=ピタゴラス/冒険してラッパピーヤ！
EXTD=YEAR: 1992
EXTT0=
EXTT1=
EXTT2=
EXTT3=
EXTT4=
EXTT5=
EXTT6=
EXTT7=
EXTT8=
EXTT9=
EXTT10=
EXTT11=
PLAYORDER=
